<svg
	width="218"
	height="266"
	viewBox="0 0 218 266"
	fill="none"
	xmlns="http://www.w3.org/2000/svg">
	<path
		d="M0 94.937V14.4216C20.5859 9.25929 37.6062 4.99132 57.5097 -8.33271e-05L63.8997 40.693L57.5097 81.3862L29.6068 93.4316L0 94.937Z"
		fill="#5EBA3F" />
	<path
		d="M57.5103 252.84V93.7213L78.9537 81.6288L108.63 77.7941L115.02 203.115L108.63 239.823L83.0701 252.642L57.5103 252.84Z"
		fill="#F39321" />
	<path
		d="M108.63 239.823V88.2191L134.19 91.1295L159.749 104.146C159.749 106.135 159.749 250.851 159.749 252.84L134.19 252.642L108.63 239.823Z"
		fill="#F3A141" />
	<path
		fill-rule="evenodd"
		clip-rule="evenodd"
		d="M95.6292 243.133C81.7362 246.671 61.7952 251.748 57.51 252.84L108.63 265.659H108.63L159.749 252.84L146.872 249.561C132.974 246.022 112.928 240.918 108.63 239.823L108.63 239.823C108.63 239.823 108.63 239.823 108.63 239.823C108.63 239.823 108.63 239.823 108.63 239.823V239.823C106.724 240.308 101.767 241.57 95.6292 243.133Z"
		fill="#F8C67C" />
	<path
		d="M57.51 81.3862V-0.000106812C63.8535 1.59077 102.377 11.2514 108.63 12.8192L115.02 53.1252L108.63 93.4312C101.084 93.0628 85.1982 92.2868 80.7269 92.0685C77.9072 90.7716 60.3399 82.6882 57.51 81.3862Z"
		fill="#6BCD49" />
	<path
		fill-rule="evenodd"
		clip-rule="evenodd"
		d="M57.5097 81.3861C50.5012 83.0372 6.99403 93.2888 0 94.9369L57.5097 109.359L57.5099 109.358V109.359C72.5608 104.669 77.7117 103.064 81.3528 101.93C86.2799 100.395 88.4423 99.721 108.63 93.4315C104.732 92.5129 88.0769 88.5885 74.6607 85.4273C66.6639 83.5431 59.8178 81.9299 57.5099 81.3861V81.3866L57.5097 81.3861Z"
		fill="#C9F87C" />
	<path
		d="M159.749 81.3862L166.139 40.6935L159.749 0.00038147C153.565 1.55109 114.854 11.2587 108.629 12.8197C108.629 17.2957 108.629 88.956 108.629 93.4316L134.189 92.4963L159.749 81.3862Z"
		fill="#5EBA3F" />
	<path
		d="M217.259 94.937V14.4216C196.673 9.25929 179.652 4.99132 159.749 -8.39233e-05C159.749 4.52384 159.749 76.8627 159.749 81.3862L188.504 93.4316L217.259 94.937Z"
		fill="#6BCD49" />
	<path
		fill-rule="evenodd"
		clip-rule="evenodd"
		d="M159.749 109.359L217.259 94.937C210.265 93.2889 166.758 83.0375 159.749 81.3862L159.749 81.3862L159.749 81.3862C159.749 81.3862 159.749 81.3862 159.749 81.3862V81.3862L134.189 87.4087L108.629 93.4312C110.845 94.1213 112.964 94.7818 114.992 95.4137C122.653 97.8007 129.01 99.7813 134.284 101.424C157.211 108.568 159.659 109.33 159.749 109.359V109.359C159.725 109.351 159.554 109.298 159.749 109.359V109.359L159.749 109.359C159.749 109.359 159.749 109.359 159.749 109.359L159.749 109.359C159.751 109.359 159.752 109.359 159.752 109.359C159.752 109.359 159.751 109.359 159.749 109.359Z"
		fill="#C9F87C" />
</svg>
