<svg
	width="43"
	height="43"
	viewBox="0 0 43 43"
	fill="none"
	xmlns="http://www.w3.org/2000/svg">
	<path
		d="M29.768 38.5232C34.6034 38.5232 38.5232 34.6034 38.5232 29.768C38.5232 24.9326 34.6034 21.0127 29.768 21.0127C24.9326 21.0127 21.0127 24.9326 21.0127 29.768C21.0127 34.6034 24.9326 38.5232 29.768 38.5232Z"
		fill="#EDFF81" />
	<path
		d="M32.3946 15.7596C35.7793 15.7596 38.5232 13.0157 38.5232 9.63088C38.5232 6.2461 35.7793 3.5022 32.3946 3.5022C29.0098 3.5022 26.2659 6.2461 26.2659 9.63088C26.2659 13.0157 29.0098 15.7596 32.3946 15.7596Z"
		fill="white" />
	<path
		d="M9.68337 38.4707C13.0682 38.4707 15.8121 35.7268 15.8121 32.3421C15.8121 28.9573 13.0682 26.2134 9.68337 26.2134C6.29859 26.2134 3.55469 28.9573 3.55469 32.3421C3.55469 35.7268 6.29859 38.4707 9.68337 38.4707Z"
		fill="white" />
	<path
		d="M12.2575 21.0127C17.0929 21.0127 21.0127 17.0929 21.0127 12.2575C21.0127 7.42206 17.0929 3.5022 12.2575 3.5022C7.42206 3.5022 3.5022 7.42206 3.5022 12.2575C3.5022 17.0929 7.42206 21.0127 12.2575 21.0127Z"
		fill="#EDFF81" />
</svg>
